<svg xmlns="http://www.w3.org/2000/svg" viewBox="0 0 600 400">
  <!-- Rectangle -->
  <rect x="20" y="20" width="100" height="80" fill="#4285F4" stroke="#333333" stroke-width="2" />
  
  <!-- Circle -->
  <circle cx="200" cy="60" r="40" fill="#EA4335" stroke="#333333" stroke-width="2" />
  
  <!-- Ellipse -->
  <ellipse cx="340" cy="60" rx="60" ry="30" fill="#FBBC05" stroke="#333333" stroke-width="2" />
  
  <!-- Line -->
  <line x1="420" y1="20" x2="560" y2="100" stroke="#34A853" stroke-width="4" />
  
  <!-- Polyline -->
  <polyline points="20,150 60,120 100,150 140,120 180,150" fill="none" stroke="#800080" stroke-width="3" />
  
  <!-- Polygon -->
  <polygon points="220,120 260,120 280,160 240,180 200,160" fill="#FF6347" stroke="#333333" stroke-width="2" />
  
  <!-- Path -->
  <path d="M340,120 C380,80 420,180 460,140" fill="none" stroke="#1E90FF" stroke-width="3" />
  
  <!-- Text -->
  <text x="500" y="150" font-family="Arial" font-size="18" fill="#333333">SVG Text</text>
  
  <!-- Group with transformation -->
  <g transform="translate(100, 240) rotate(15)">
    <rect x="0" y="0" width="80" height="60" fill="#FF9900" stroke="#333333" stroke-width="2" />
    <circle cx="100" cy="30" r="25" fill="#9C27B0" stroke="#333333" stroke-width="2" />
  </g>
  
  <!-- Gradient -->
  <defs>
    <linearGradient id="gradient1" x1="0%" y1="0%" x2="100%" y2="0%">
      <stop offset="0%" stop-color="#FF512F" />
      <stop offset="100%" stop-color="#F09819" />
    </linearGradient>
  </defs>
  <rect x="220" y="220" width="160" height="80" fill="url(#gradient1)" stroke="#333333" stroke-width="2" />
  
  <!-- Filter -->
  <defs>
    <filter id="blur1" x="-10%" y="-10%" width="120%" height="120%">
      <feGaussianBlur in="SourceGraphic" stdDeviation="5" />
    </filter>
  </defs>
  <circle cx="450" cy="260" r="40" fill="#3F51B5" filter="url(#blur1)" />
  
  <!-- Animation (requires SVG SMIL animation support) -->
  <circle cx="100" cy="350" r="20" fill="#E91E63">
    <animate attributeName="cx" from="100" to="500" dur="3s" repeatCount="indefinite" />
  </circle>
</svg>
